<svg viewBox="0 0 400 400" width="400" height="400" xmlns="http://www.w3.org/2000/svg">
  <!-- Seoul Index avatar (@seoul-index.bsky.social). Red disc, cream 서울,
       ringed by 40 cream binary digits: a data ribbon that reads as data at any
       size, where real Seoul figures just read as noise. Bluesky crops to a
       circle. Site red #d70000, cream #f5f0e6. -->
  <rect width="400" height="400" fill="#d70000"/>
  <g fill="#f5f0e6" font-family="'Helvetica Neue',Arial,sans-serif" font-weight="600" font-size="25" text-anchor="middle" dominant-baseline="central">
    <text x="200" y="50" transform="rotate(0 200 200)">1</text>
    <text x="200" y="50" transform="rotate(9 200 200)">0</text>
    <text x="200" y="50" transform="rotate(18 200 200)">1</text>
    <text x="200" y="50" transform="rotate(27 200 200)">1</text>
    <text x="200" y="50" transform="rotate(36 200 200)">0</text>
    <text x="200" y="50" transform="rotate(45 200 200)">0</text>
    <text x="200" y="50" transform="rotate(54 200 200)">0</text>
    <text x="200" y="50" transform="rotate(63 200 200)">1</text>
    <text x="200" y="50" transform="rotate(72 200 200)">0</text>
    <text x="200" y="50" transform="rotate(81 200 200)">1</text>
    <text x="200" y="50" transform="rotate(90 200 200)">1</text>
    <text x="200" y="50" transform="rotate(99 200 200)">0</text>
    <text x="200" y="50" transform="rotate(108 200 200)">1</text>
    <text x="200" y="50" transform="rotate(117 200 200)">0</text>
    <text x="200" y="50" transform="rotate(126 200 200)">0</text>
    <text x="200" y="50" transform="rotate(135 200 200)">1</text>
    <text x="200" y="50" transform="rotate(144 200 200)">1</text>
    <text x="200" y="50" transform="rotate(153 200 200)">1</text>
    <text x="200" y="50" transform="rotate(162 200 200)">0</text>
    <text x="200" y="50" transform="rotate(171 200 200)">1</text>
    <text x="200" y="50" transform="rotate(180 200 200)">0</text>
    <text x="200" y="50" transform="rotate(189 200 200)">0</text>
    <text x="200" y="50" transform="rotate(198 200 200)">1</text>
    <text x="200" y="50" transform="rotate(207 200 200)">1</text>
    <text x="200" y="50" transform="rotate(216 200 200)">0</text>
    <text x="200" y="50" transform="rotate(225 200 200)">0</text>
    <text x="200" y="50" transform="rotate(234 200 200)">1</text>
    <text x="200" y="50" transform="rotate(243 200 200)">0</text>
    <text x="200" y="50" transform="rotate(252 200 200)">1</text>
    <text x="200" y="50" transform="rotate(261 200 200)">1</text>
    <text x="200" y="50" transform="rotate(270 200 200)">0</text>
    <text x="200" y="50" transform="rotate(279 200 200)">1</text>
    <text x="200" y="50" transform="rotate(288 200 200)">0</text>
    <text x="200" y="50" transform="rotate(297 200 200)">0</text>
    <text x="200" y="50" transform="rotate(306 200 200)">1</text>
    <text x="200" y="50" transform="rotate(315 200 200)">0</text>
    <text x="200" y="50" transform="rotate(324 200 200)">1</text>
    <text x="200" y="50" transform="rotate(333 200 200)">1</text>
    <text x="200" y="50" transform="rotate(342 200 200)">0</text>
    <text x="200" y="50" transform="rotate(351 200 200)">1</text>
  </g>
  <text x="200" y="238" text-anchor="middle" font-family="'Apple SD Gothic Neo','Noto Sans KR','Malgun Gothic',sans-serif" font-size="106" font-weight="800" fill="#f5f0e6">서울</text>
</svg>
